<svg width="167" height="44" viewBox="0 0 167 44" fill="none" xmlns="http://www.w3.org/2000/svg">
<path d="M66.2361 2.62V2.5H72.9761H79.7361V2.62L79.9561 5.16C80.0761 6.82667 80.1428 7.67333 80.1561 7.7V7.82H79.4361C78.9561 7.82 78.7161 7.81333 78.7161 7.8C78.7161 7.53333 78.6828 7.18667 78.6161 6.76C78.5361 6.16 78.4228 5.66667 78.2761 5.28C78.0761 4.81333 77.7361 4.46667 77.2561 4.24C77.0561 4.13333 76.7894 4.05333 76.4561 4C76.3361 3.97333 75.9961 3.95333 75.4361 3.94H74.6561V9.24V14.56H76.1961H77.7161V15.28V16H77.3961L75.0361 15.96C73.6628 15.9467 72.2961 15.9467 70.9361 15.96L68.5761 16H68.2561V15.28V14.56H69.7961H71.3161V9.24V3.94H70.5361C69.9761 3.95333 69.6361 3.97333 69.5161 4C68.8894 4.12 68.4094 4.35333 68.0761 4.7C67.8628 4.91333 67.6894 5.23333 67.5561 5.66C67.4494 6.04667 67.3628 6.64 67.2961 7.44C67.2694 7.66667 67.2561 7.78667 67.2561 7.8C67.2561 7.81333 67.0161 7.82 66.5361 7.82H65.8161V7.7L66.0361 5.16C66.1561 3.49333 66.2228 2.64667 66.2361 2.62ZM81.4722 3V2.28H81.6922L83.2922 2.32C84.2255 2.33333 85.2522 2.33333 86.3722 2.32C87.6655 2.29333 88.3055 2.28 88.2922 2.28H88.5522V3V3.72H87.6922C87.1189 3.72 86.8322 3.73333 86.8322 3.76L88.2922 7.64C89.2789 10.28 89.7722 11.58 89.7722 11.54C89.7722 11.62 90.1589 10.6133 90.9322 8.52C91.7055 6.46667 92.0922 5.43333 92.0922 5.42L91.7722 4.56L91.4722 3.72H90.5122H89.5522V3V2.28H89.7722L91.3722 2.32C92.3055 2.33333 93.3255 2.33333 94.4322 2.32C95.7522 2.29333 96.4055 2.28 96.3922 2.28H96.6522V3V3.72H95.7722C95.1989 3.72 94.9122 3.72667 94.9122 3.74L96.3922 7.66L97.8722 11.56L100.832 3.74C100.832 3.72667 100.512 3.72 99.8722 3.72H98.8922V3V2.28H99.0922C99.0789 2.28 99.6055 2.29333 100.672 2.32C101.579 2.33333 102.352 2.33333 102.992 2.32C103.726 2.29333 104.099 2.28 104.112 2.28H104.272V3V3.72H103.332H102.372L102.312 3.88C102.299 3.94667 101.546 5.94667 100.052 9.88C98.5322 13.8933 97.7855 15.8733 97.8122 15.82C97.7322 15.98 97.6255 16.08 97.4922 16.12C97.4255 16.1467 97.2389 16.16 96.9322 16.16C96.5322 16.16 96.2789 16.1133 96.1722 16.02C96.1055 15.9533 96.0655 15.9 96.0522 15.86C96.0389 15.8467 95.4989 14.44 94.4322 11.64L92.8722 7.5L91.3122 11.64C90.2455 14.44 89.7055 15.8467 89.6922 15.86C89.6789 15.9 89.6389 15.9533 89.5722 16.02C89.4655 16.1133 89.2122 16.16 88.8122 16.16C88.5055 16.16 88.3189 16.1467 88.2522 16.12C88.1189 16.08 88.0122 15.98 87.9322 15.82C87.9589 15.8733 87.2122 13.8933 85.6922 9.88C84.1989 5.94667 83.4455 3.94667 83.4322 3.88L83.3722 3.72H82.4122H81.4722V3ZM105.561 3.12V2.4H111.761H117.981V2.48C117.995 2.53333 118.101 3.39333 118.301 5.06C118.475 6.68667 118.575 7.54667 118.601 7.64V7.72H117.881H117.161L117.121 7.38C117.001 6.51333 116.841 5.85333 116.641 5.4C116.228 4.56 115.461 4.06 114.341 3.9C113.981 3.86 113.308 3.84 112.321 3.84H111.061V6.02V8.22H111.421C112.035 8.22 112.481 8.14667 112.761 8C112.988 7.90667 113.155 7.76 113.261 7.56C113.448 7.25333 113.541 6.78 113.541 6.14V5.88H114.261H114.981V8.94V12H114.261H113.541V11.74C113.541 11.1 113.448 10.6267 113.261 10.32C113.155 10.12 112.988 9.97333 112.761 9.88C112.481 9.73333 112.035 9.66 111.421 9.66H111.061V12.1V14.56H112.361C113.308 14.56 113.841 14.5533 113.961 14.54C115.321 14.4467 116.281 14.0067 116.841 13.22C116.908 13.14 116.995 12.9867 117.101 12.76C117.341 12.2933 117.548 11.56 117.721 10.56C117.748 10.2933 117.775 10.1333 117.801 10.08V10.02H118.521H119.241V10.08C119.228 10.1067 119.075 11.08 118.781 13C118.488 14.9333 118.335 15.9133 118.321 15.94V16H111.941H105.561V15.28V14.56H106.641H107.721V9.2V3.84H106.641H105.561V3.12ZM120.678 3V2.28H120.938C120.925 2.28 121.565 2.29333 122.858 2.32C123.965 2.33333 125.152 2.33333 126.418 2.32L128.598 2.28H128.878V3V3.72H127.538H126.178V9.14V14.56H127.038C127.652 14.56 128.018 14.5467 128.138 14.52C128.685 14.4533 129.178 14.2733 129.618 13.98C130.432 13.42 130.945 12.4867 131.158 11.18C131.265 10.5933 131.318 10.2133 131.318 10.04C131.318 10.0267 131.558 10.02 132.038 10.02H132.758V10.12C132.732 10.1867 132.632 11.1467 132.458 13C132.258 14.9067 132.152 15.8733 132.138 15.9V16H126.398H120.678V15.28V14.56H121.758H122.838V9.14V3.72H121.758H120.678V3ZM134.246 3V2.28H134.466L136.146 2.32C137.119 2.33333 138.166 2.33333 139.286 2.32L141.226 2.28H141.486V3V3.72H140.646H139.806L141.566 7.86C142.739 10.6467 143.326 12.0333 143.326 12.02L146.846 3.76C146.846 3.73333 146.573 3.72 146.026 3.72H145.186V3V2.28H145.386L146.866 2.32C147.719 2.33333 148.499 2.33333 149.206 2.32C150.019 2.29333 150.433 2.28 150.446 2.28H150.606V3V3.72H149.586H148.546L145.986 9.78C144.253 13.8333 143.379 15.8733 143.366 15.9C143.299 16.0067 143.193 16.0867 143.046 16.14C142.913 16.18 142.559 16.1867 141.986 16.16C141.893 16.16 141.833 16.1533 141.806 16.14C141.659 16.0867 141.553 16.0067 141.486 15.9C141.473 15.8733 140.599 13.8333 138.866 9.78L136.306 3.72H135.266H134.246V3ZM151.909 3.12V2.4H158.109H164.329V2.48C164.342 2.53333 164.449 3.39333 164.649 5.06C164.822 6.68667 164.922 7.54667 164.949 7.64V7.72H164.229H163.509L163.469 7.38C163.349 6.51333 163.189 5.85333 162.989 5.4C162.576 4.56 161.809 4.06 160.689 3.9C160.329 3.86 159.656 3.84 158.669 3.84H157.409V6.02V8.22H157.769C158.382 8.22 158.829 8.14667 159.109 8C159.336 7.90667 159.502 7.76 159.609 7.56C159.796 7.25333 159.889 6.78 159.889 6.14V5.88H160.609H161.329V8.94V12H160.609H159.889V11.74C159.889 11.1 159.796 10.6267 159.609 10.32C159.502 10.12 159.336 9.97333 159.109 9.88C158.829 9.73333 158.382 9.66 157.769 9.66H157.409V12.1V14.56H158.709C159.656 14.56 160.189 14.5533 160.309 14.54C161.669 14.4467 162.629 14.0067 163.189 13.22C163.256 13.14 163.342 12.9867 163.449 12.76C163.689 12.2933 163.896 11.56 164.069 10.56C164.096 10.2933 164.122 10.1333 164.149 10.08V10.02H164.869H165.589V10.08C165.576 10.1067 165.422 11.08 165.129 13C164.836 14.9333 164.682 15.9133 164.669 15.94V16H158.289H151.909V15.28V14.56H152.989H154.069V9.2V3.84H152.989H151.909V3.12ZM73.7561 24.08H74.8761C75.4228 24.12 75.9294 24.2333 76.3961 24.42C76.9161 24.5933 77.4161 24.86 77.8961 25.22C78.0161 25.3133 78.0761 25.3467 78.0761 25.32C78.0894 25.32 78.3361 25.12 78.8161 24.72C79.3494 24.2933 79.6094 24.0867 79.5961 24.1C79.7028 24.0333 79.8961 24.0333 80.1761 24.1C80.2428 24.14 80.2828 24.2067 80.2961 24.3C80.3094 24.4333 80.3161 25.3 80.3161 26.9C80.3161 28.6733 80.2961 29.5867 80.2561 29.64L80.1761 29.68C80.1228 29.7067 79.9094 29.72 79.5361 29.72C79.1628 29.72 78.9494 29.7067 78.8961 29.68C78.8028 29.6133 78.7494 29.5133 78.7361 29.38C78.6294 28.3933 78.2761 27.54 77.6761 26.82C77.4094 26.5267 77.1561 26.2933 76.9161 26.12C76.4894 25.8133 76.0428 25.6267 75.5761 25.56C74.9894 25.44 74.2694 25.4733 73.4161 25.66C72.5628 25.8333 71.8761 26.14 71.3561 26.58C71.0494 26.82 70.8228 27.06 70.6761 27.3C70.1161 28.1133 69.8361 29.3933 69.8361 31.14C69.8361 32.9667 70.1494 34.2867 70.7761 35.1C70.8428 35.1933 70.9228 35.2867 71.0161 35.38C71.1894 35.5533 71.3028 35.66 71.3561 35.7C71.8761 36.14 72.5628 36.4467 73.4161 36.62C74.1628 36.78 74.8228 36.8267 75.3961 36.76C76.6094 36.64 77.5494 36.1 78.2161 35.14C78.6161 34.58 78.8361 33.96 78.8761 33.28C78.8761 33.0533 78.9228 32.9133 79.0161 32.86C79.0694 32.8333 79.2628 32.82 79.5961 32.82C79.9294 32.82 80.1228 32.8333 80.1761 32.86C80.2694 32.9267 80.3161 33.08 80.3161 33.32C80.2761 33.96 80.1294 34.54 79.8761 35.06C79.2494 36.3667 78.1761 37.2867 76.6561 37.82C76.0961 38.02 75.5028 38.1467 74.8761 38.2C74.4494 38.24 73.9094 38.2333 73.2561 38.18C71.5761 37.9933 70.1761 37.5133 69.0561 36.74C67.9894 35.9533 67.2294 34.9733 66.7761 33.8C66.5761 33.2933 66.4228 32.6933 66.3161 32C66.2628 31.52 66.2628 30.9733 66.3161 30.36C66.3161 30.32 66.3161 30.2867 66.3161 30.26C66.4494 29.1933 66.7828 28.2333 67.3161 27.38C68.1294 26.06 69.3628 25.12 71.0161 24.56C71.8694 24.2933 72.7828 24.1333 73.7561 24.08ZM82.0172 25V24.28H82.2972L84.2572 24.32C85.4039 24.3333 86.5439 24.3333 87.6772 24.32L89.6572 24.28H89.9172V25V25.72H88.7772H87.6372V31.14V36.56H88.7772H89.9172V37.28V38H89.6372L87.6772 37.96C86.5439 37.9467 85.4039 37.9467 84.2572 37.96L82.2772 38H82.0172V37.28V36.56H83.1572H84.2972V31.14V25.72H83.1572H82.0172V25ZM91.1081 25V24.28H93.8681H96.6481L96.7281 24.32C96.7681 24.3333 97.9481 25.7667 100.268 28.62C102.628 31.5267 103.788 32.96 103.748 32.92L103.808 32.98V29.36V25.72H102.728H101.648V25V24.28H101.848L103.308 24.32C104.161 24.3333 105.015 24.3333 105.868 24.32C106.828 24.2933 107.315 24.28 107.328 24.28H107.528V25V25.72H106.448H105.368V31.72C105.368 35.7067 105.355 37.7267 105.328 37.78C105.301 37.86 105.248 37.92 105.168 37.96C105.115 37.9867 104.921 38 104.588 38C104.255 38 104.061 37.9867 104.008 37.96C103.981 37.9467 102.455 36.0867 99.4281 32.38C96.3748 28.58 94.8615 26.7067 94.8881 26.76L94.8281 26.7V31.62V36.56H95.9081H96.9881V37.28V38H96.7881C96.8015 38 96.3148 37.9867 95.3281 37.96C94.4748 37.9467 93.6215 37.9467 92.7681 37.96C91.7815 37.9867 91.2948 38 91.3081 38H91.1081V37.28V36.56H92.1881H93.2681V31.14V25.72H92.1881H91.1081V25ZM109.116 25.12V24.4H115.316H121.536V24.48C121.549 24.5333 121.656 25.3933 121.856 27.06C122.029 28.6867 122.129 29.5467 122.156 29.64V29.72H121.436H120.716L120.676 29.38C120.556 28.5133 120.396 27.8533 120.196 27.4C119.783 26.56 119.016 26.06 117.896 25.9C117.536 25.86 116.863 25.84 115.876 25.84H114.616V28.02V30.22H114.976C115.589 30.22 116.036 30.1467 116.316 30C116.543 29.9067 116.709 29.76 116.816 29.56C117.003 29.2533 117.096 28.78 117.096 28.14V27.88H117.816H118.536V30.94V34H117.816H117.096V33.74C117.096 33.1 117.003 32.6267 116.816 32.32C116.709 32.12 116.543 31.9733 116.316 31.88C116.036 31.7333 115.589 31.66 114.976 31.66H114.616V34.1V36.56H115.916C116.863 36.56 117.396 36.5533 117.516 36.54C118.876 36.4467 119.836 36.0067 120.396 35.22C120.463 35.14 120.549 34.9867 120.656 34.76C120.896 34.2933 121.103 33.56 121.276 32.56C121.303 32.2933 121.329 32.1333 121.356 32.08V32.02H122.076H122.796V32.08C122.783 32.1067 122.629 33.08 122.336 35C122.043 36.9333 121.889 37.9133 121.876 37.94V38H115.496H109.116V37.28V36.56H110.196H111.276V31.2V25.84H110.196H109.116V25.12ZM124.233 25V24.28H127.033H129.853L129.953 24.34C130.086 24.4067 130.2 24.56 130.293 24.8L132.393 29.8L134.373 34.52L136.353 29.8L138.453 24.8C138.546 24.56 138.666 24.4067 138.813 24.34L138.913 24.28H141.693H144.493V25V25.72H143.413H142.333V31.14V36.56H143.413H144.493V37.28V38H144.253C144.266 38 143.653 37.9867 142.413 37.96C141.36 37.9467 140.306 37.9467 139.253 37.96C138.013 37.9867 137.4 38 137.413 38H137.173V37.28V36.56H138.253H139.333V31.22L139.313 25.92C139.246 26.0533 138.42 28.0267 136.833 31.84C135.18 35.76 134.34 37.7333 134.313 37.76C134.246 37.8667 134.146 37.94 134.013 37.98C133.88 38.02 133.633 38.0267 133.273 38C133.22 38 133.18 37.9933 133.153 37.98C133.02 37.94 132.92 37.8667 132.853 37.76C132.826 37.7333 132.006 35.8 130.393 31.96C128.78 28.0933 127.973 26.1667 127.973 26.18L127.953 31.32V31.36V36.56H129.033H130.113V37.28V38H129.913C129.926 38 129.44 37.9867 128.453 37.96C127.6 37.9467 126.746 37.9467 125.893 37.96C124.906 37.9867 124.42 38 124.433 38H124.233V37.28V36.56H125.313H126.393V31.14V25.72H125.313H124.233V25ZM153.349 24.06H154.549H154.569C154.742 24.1267 154.842 24.2 154.869 24.28L159.669 36.46L159.709 36.56H160.789H161.849V37.28V38H161.609L159.889 37.96C158.916 37.9467 157.862 37.9467 156.729 37.96L154.789 38H154.529V37.28V36.56H155.389L156.249 36.54L155.889 35.64L155.529 34.74H153.069C151.429 34.74 150.609 34.7467 150.609 34.76L150.249 35.66L149.909 36.54C149.909 36.5533 150.196 36.56 150.769 36.56H151.609V37.28V38H151.409L149.929 37.96C149.062 37.9467 148.262 37.9467 147.529 37.96L146.269 38H146.089V37.28V36.56H147.149H148.229L148.269 36.46L153.069 24.28C153.109 24.2133 153.202 24.14 153.349 24.06ZM154.029 30.9L153.089 28.5H153.069L151.189 33.3H153.089L154.969 33.28L154.029 30.9Z" fill="white"/>
<line x1="50.5" y1="4" x2="50.5" y2="42" stroke="white"/>
<path d="M0.210145 16.1543L1.30246 20.1719V34.0107C1.30246 36.6323 2.69203 38 5.31644 38H32.5339C35.1422 38 36.5303 36.5943 36.5303 34.0107V18.1117C36.5303 16.8774 35.8896 16.219 34.6333 16.2H14.8455L33.3787 11.2418C34.5927 10.9226 35.015 10.126 34.7162 8.93818L34.2523 7.04868C33.6444 4.50879 31.8639 3.53763 29.3416 4.20392L3.04165 11.2493C0.522168 11.9185 -0.47371 13.6552 0.210145 16.1543ZM2.2228 33.9803V24.0095H35.61V33.9803C35.61 36.0202 34.4718 37.0986 32.4931 37.0986H5.35729C3.28504 37.0986 2.2228 36.0202 2.2228 33.9803ZM4.23826 18.0986L5.96478 11.4398L11.01 10.0717L9.30532 16.7495L4.23826 18.0986ZM14.0048 15.4834L15.7475 8.82463L21.1997 7.33682L19.476 14.0336L14.0048 15.4834ZM24.1916 12.7676L25.9167 6.08978L29.5336 5.10243C30.0369 4.96238 30.4994 4.93624 30.9254 4.92909L29.2777 11.3994L24.1916 12.7676ZM4.65768 23.1429L7.58043 17.9982L11.1119 17.1218H13.3265L9.90712 23.1429H4.65768ZM14.789 23.1429L18.2069 17.1218H23.8633L20.4439 23.1429H14.789ZM25.3258 23.1429L28.7437 17.1218H33.9931L30.5928 23.1429H25.3258Z" fill="white"/>
</svg>
